<svg width="32" height="32" viewBox="0 0 32 32" fill="none" xmlns="http://www.w3.org/2000/svg">
<g clip-path="url(#clip0_963_5959)">
<path d="M26 0H6C2.68629 0 0 2.64496 0 5.90769V25.6C0 28.8627 2.68629 31.5077 6 31.5077H26C29.3137 31.5077 32 28.8627 32 25.6V5.90769C32 2.64496 29.3137 0 26 0Z" fill="#409399"/>
<path d="M16.1562 20.1975C17.3937 20.1975 18.6035 19.8361 19.6325 19.1591C20.6615 18.4821 21.4634 17.5199 21.937 16.3941C22.4105 15.2683 22.5344 14.0295 22.2929 12.8345C22.0514 11.6394 21.4553 10.5416 20.5802 9.68007C19.705 8.81851 18.59 8.23184 17.3762 7.99424C16.1624 7.75663 14.9043 7.87878 13.761 8.34522C12.6177 8.81166 11.6406 9.60145 10.9532 10.6147C10.2658 11.628 9.89897 12.8192 9.89917 14.0377C9.89891 14.8468 10.0606 15.6481 10.3749 16.3956C10.6893 17.1432 11.1501 17.8225 11.7312 18.3946C12.3123 18.9667 13.0022 19.4205 13.7614 19.73C14.5207 20.0395 15.3344 20.1987 16.1562 20.1984V20.1975Z" fill="#AAEEC4"/>
<path d="M28.0001 31.5078H4.00012C4.63012 28.7674 6.14216 26.3006 8.31112 24.4747C9.36505 23.5951 10.564 22.8995 11.8561 22.4179C14.5273 21.4278 17.473 21.4278 20.1441 22.4179C21.4362 22.8995 22.6352 23.5951 23.6891 24.4747C25.8579 26.3004 27.3699 28.7668 28.0001 31.5069V31.5078Z" fill="#AAEEC4"/>
</g>
<defs>
<clipPath id="clip0_963_5959">
<rect width="32" height="32" rx="16" fill="white"/>
</clipPath>
</defs>
</svg>
